<svg width="1600" height="900" viewBox="0 0 1600 900" fill="none" xmlns="http://www.w3.org/2000/svg">
  <g opacity="0.22" stroke="#ffffff" stroke-width="1">

    <!-- Núcleo radial derecho -->
    <circle cx="1220" cy="220" r="70"/>
    <circle cx="1220" cy="220" r="120"/>
    <circle cx="1220" cy="220" r="170"/>
    <circle cx="1220" cy="220" r="230"/>

    <line x1="1220" y1="0" x2="1220" y2="450"/>
    <line x1="990" y1="220" x2="1450" y2="220"/>
    <line x1="1058" y1="58" x2="1382" y2="382"/>
    <line x1="1058" y1="382" x2="1382" y2="58"/>
    <line x1="1120" y1="25" x2="1320" y2="415"/>
    <line x1="1120" y1="415" x2="1320" y2="25"/>

    <!-- Red superior izquierda -->
    <line x1="80" y1="120" x2="260" y2="90"/>
    <line x1="260" y1="90" x2="430" y2="150"/>
    <line x1="430" y1="150" x2="620" y2="100"/>
    <line x1="620" y1="100" x2="760" y2="180"/>

    <line x1="80" y1="120" x2="150" y2="260"/>
    <line x1="150" y1="260" x2="310" y2="240"/>
    <line x1="310" y1="240" x2="430" y2="150"/>
    <line x1="310" y1="240" x2="520" y2="300"/>
    <line x1="520" y1="300" x2="760" y2="180"/>
    <line x1="520" y1="300" x2="700" y2="340"/>

    <!-- Red media -->
    <line x1="180" y1="430" x2="340" y2="380"/>
    <line x1="340" y1="380" x2="530" y2="450"/>
    <line x1="530" y1="450" x2="760" y2="390"/>
    <line x1="760" y1="390" x2="980" y2="470"/>
    <line x1="980" y1="470" x2="1140" y2="410"/>

    <line x1="340" y1="380" x2="310" y2="240"/>
    <line x1="530" y1="450" x2="520" y2="300"/>
    <line x1="760" y1="390" x2="700" y2="340"/>
    <line x1="980" y1="470" x2="1080" y2="350"/>
    <line x1="1140" y1="410" x2="1220" y2="220"/>

    <!-- Red inferior -->
    <line x1="120" y1="760" x2="280" y2="680"/>
    <line x1="280" y1="680" x2="460" y2="740"/>
    <line x1="460" y1="740" x2="640" y2="670"/>
    <line x1="640" y1="670" x2="850" y2="760"/>
    <line x1="850" y1="760" x2="1080" y2="690"/>
    <line x1="1080" y1="690" x2="1320" y2="760"/>

    <line x1="280" y1="680" x2="240" y2="560"/>
    <line x1="240" y1="560" x2="430" y2="530"/>
    <line x1="430" y1="530" x2="640" y2="670"/>
    <line x1="430" y1="530" x2="530" y2="450"/>
    <line x1="640" y1="670" x2="760" y2="390"/>
    <line x1="850" y1="760" x2="980" y2="470"/>
    <line x1="1080" y1="690" x2="1140" y2="410"/>
    <line x1="1320" y1="760" x2="1380" y2="560"/>

    <!-- Conectores largos -->
    <line x1="760" y1="180" x2="1080" y2="350"/>
    <line x1="700" y1="340" x2="1080" y2="350"/>
    <line x1="1080" y1="350" x2="1220" y2="220"/>
    <line x1="1140" y1="410" x2="1380" y2="560"/>
    <line x1="980" y1="470" x2="1380" y2="560"/>

    <!-- Malla decorativa derecha inferior -->
    <line x1="1180" y1="540" x2="1320" y2="500"/>
    <line x1="1320" y1="500" x2="1480" y2="580"/>
    <line x1="1180" y1="540" x2="1260" y2="660"/>
    <line x1="1260" y1="660" x2="1480" y2="580"/>
    <line x1="1260" y1="660" x2="1400" y2="760"/>
    <line x1="1320" y1="500" x2="1380" y2="560"/>

  </g>

  <g fill="#ffffff" opacity="0.32">
    <!-- Nodos radial -->
    <circle cx="1220" cy="220" r="4"/>
    <circle cx="1220" cy="150" r="3"/>
    <circle cx="1290" cy="220" r="3"/>
    <circle cx="1220" cy="290" r="3"/>
    <circle cx="1150" cy="220" r="3"/>
    <circle cx="1320" cy="120" r="3"/>
    <circle cx="1120" cy="120" r="3"/>
    <circle cx="1320" cy="320" r="3"/>
    <circle cx="1120" cy="320" r="3"/>

    <!-- Red superior -->
    <circle cx="80" cy="120" r="3"/>
    <circle cx="260" cy="90" r="3"/>
    <circle cx="430" cy="150" r="3"/>
    <circle cx="620" cy="100" r="3"/>
    <circle cx="760" cy="180" r="3"/>
    <circle cx="150" cy="260" r="3"/>
    <circle cx="310" cy="240" r="3"/>
    <circle cx="520" cy="300" r="3"/>
    <circle cx="700" cy="340" r="3"/>

    <!-- Red media -->
    <circle cx="180" cy="430" r="3"/>
    <circle cx="340" cy="380" r="3"/>
    <circle cx="530" cy="450" r="3"/>
    <circle cx="760" cy="390" r="3"/>
    <circle cx="980" cy="470" r="3"/>
    <circle cx="1140" cy="410" r="3"/>
    <circle cx="1080" cy="350" r="3"/>

    <!-- Red inferior -->
    <circle cx="120" cy="760" r="3"/>
    <circle cx="280" cy="680" r="3"/>
    <circle cx="460" cy="740" r="3"/>
    <circle cx="640" cy="670" r="3"/>
    <circle cx="850" cy="760" r="3"/>
    <circle cx="1080" cy="690" r="3"/>
    <circle cx="1320" cy="760" r="3"/>
    <circle cx="240" cy="560" r="3"/>
    <circle cx="430" cy="530" r="3"/>
    <circle cx="1380" cy="560" r="3"/>
    <circle cx="1180" cy="540" r="3"/>
    <circle cx="1320" cy="500" r="3"/>
    <circle cx="1480" cy="580" r="3"/>
    <circle cx="1260" cy="660" r="3"/>
    <circle cx="1400" cy="760" r="3"/>
  </g>

  <g opacity="0.14" stroke="#ffffff" stroke-width="0.8">
    <!-- Arcos decorativos -->
    <path d="M40 860C220 760 360 760 520 840"/>
    <path d="M180 840C380 700 560 700 760 840"/>
    <path d="M820 840C1020 700 1220 700 1480 860"/>

    <!-- Detalles técnicos -->
    <path d="M950 120C1010 90 1070 80 1120 90"/>
    <path d="M940 150C1015 115 1090 105 1160 120"/>
    <path d="M930 180C1020 140 1110 132 1200 150"/>
  </g>
</svg>